<?xml version="1.0" encoding="UTF-8" standalone="no"?>
<!DOCTYPE svg PUBLIC "-//W3C//DTD SVG 20010904//EN"
              "http://www.w3.org/TR/2001/REC-SVG-20010904/DTD/svg10.dtd">

<svg xmlns="http://www.w3.org/2000/svg"
     viewBox="0 0 450 421">
  <path fill="white" stroke="none"
        d="M 405.13,144.68
           C 386.13,117.12 357.59,101.26 320.28,97.53
             203.76,85.91 176.81,190.24 172.60,211.29
             171.94,214.57 174.07,217.76 177.36,218.42
             180.66,219.10 183.84,216.95 184.49,213.67
             188.35,194.43 212.96,99.00 319.07,109.61
             352.67,112.96 378.27,127.08 395.14,151.57
             396.16,153.04 397.07,154.56 397.99,156.06
             380.81,161.62 329.79,181.93 297.82,234.90
             280.89,262.94 267.95,287.34 257.56,306.94
             244.89,330.83 235.73,348.10 226.74,358.53
             226.74,358.53 226.86,358.64 226.86,358.64
             216.24,370.43 182.34,401.36 132.54,382.16
             146.48,370.85 172.39,347.38 172.39,329.16
             172.39,327.80 171.94,326.48 171.09,325.41
             169.59,323.50 167.50,321.13 165.00,318.32
             146.97,298.02 109.45,255.78 124.46,188.24
             124.84,186.55 124.47,184.78 123.46,183.38
             122.46,181.98 120.89,181.07 119.18,180.89
             108.59,179.78 72.40,174.01 50.93,146.43
             37.89,129.66 32.36,107.60 34.44,80.71
             45.52,88.71 65.36,100.38 86.54,99.64
             102.96,99.09 120.66,105.28 130.53,115.27
             134.16,118.94 138.41,124.85 138.04,132.16
             137.91,134.96 139.69,137.49 142.38,138.28
             145.06,139.08 147.94,137.94 149.34,135.52
             149.54,135.19 168.93,102.08 188.65,88.58
             190.51,87.31 192.38,86.06 194.24,84.83
             212.90,72.44 236.12,57.02 216.01,22.72
             214.32,19.83 210.61,18.86 207.71,20.56
             204.82,22.25 203.86,25.97 205.55,28.86
             219.22,52.17 208.78,60.63 187.54,74.73
             185.63,75.99 183.71,77.27 181.80,78.57
             167.89,88.09 154.74,105.33 146.74,117.08
             144.91,113.46 142.38,109.99 139.16,106.74
             126.86,94.30 106.06,86.72 86.09,87.52
             60.07,88.48 34.01,64.90 33.74,64.66
             32.09,63.14 29.73,62.66 27.61,63.42
             25.49,64.17 23.96,66.04 23.64,68.26
             18.56,103.42 24.53,132.22 41.36,153.86
             62.32,180.79 95.03,189.38 111.33,192.05
             98.72,261.95 138.61,306.87 155.94,326.37
             157.51,328.14 158.92,329.72 160.09,331.11
             157.76,344.56 133.04,367.11 117.19,378.72
             115.48,379.96 114.54,382.02 114.73,384.13
             114.92,386.25 116.19,388.12 118.09,389.05
             134.54,397.14 149.71,400.29 163.34,400.29
             203.06,400.29 229.81,373.57 237.70,364.57
             274.66,370.13 306.81,368.38 333.80,359.57
             337.72,362.91 338.58,374.33 337.56,382.28
             337.29,384.41 338.17,386.54 339.87,387.85
             340.95,388.69 342.26,389.13 343.59,389.13
             344.34,389.13 345.11,388.98 345.83,388.69
             379.13,375.37 384.34,336.53 385.08,328.28
             403.03,310.28 416.33,286.32 424.45,256.29
             430.96,232.14 431.21,182.51 405.13,144.68 Z
           M 350.01,372.67
           C 349.77,367.01 348.69,360.30 345.62,355.05
             354.47,351.24 362.71,346.62 370.28,341.12
             367.40,351.32 361.61,364.39 350.01,372.67 Z
           M 412.73,253.11
           C 391.54,331.43 335.23,364.99 245.49,353.29
             252.27,342.73 259.43,329.28 268.27,312.62
             278.59,293.15 291.44,268.92 308.21,241.15
             339.31,189.63 391.26,170.86 403.88,166.94
             418.64,198.49 417.81,234.31 412.73,253.11 Z" />
  <path id="Imported Path"
        fill="white" stroke="none"
        d="M 259.94,259.56
           C 259.94,264.16 256.21,267.89 251.61,267.89
             247.01,267.89 243.28,264.16 243.28,259.56
             243.28,254.96 247.01,251.23 251.61,251.23
             256.21,251.23 259.94,254.96 259.94,259.56 Z" />
</svg>
